<?xml version="1.0" encoding="UTF-8" standalone="no"?>
<!-- Uploaded to: SVG Repo, www.svgrepo.com, Generator: SVG Repo Mixer Tools -->

<svg
   fill="#000000"
   height="800px"
   width="800px"
   version="1.1"
   id="Capa_1"
   viewBox="0 0 60 60"
   xml:space="preserve"
   sodipodi:docname="TimeBoxClock.svg"
   inkscape:export-filename="TimeBoxClock.png"
   inkscape:export-xdpi="30.663713"
   inkscape:export-ydpi="30.663713"
   inkscape:version="1.4.2 (f4327f4, 2025-05-13)"
   xmlns:inkscape="http://www.inkscape.org/namespaces/inkscape"
   xmlns:sodipodi="http://sodipodi.sourceforge.net/DTD/sodipodi-0.dtd"
   xmlns="http://www.w3.org/2000/svg"
   xmlns:svg="http://www.w3.org/2000/svg"
   xmlns:rdf="http://www.w3.org/1999/02/22-rdf-syntax-ns#"
   xmlns:cc="http://creativecommons.org/ns#"><defs
   id="defs8">
	
	
	
	
	
	
	
	
</defs><sodipodi:namedview
   id="namedview8"
   pagecolor="#ffffff"
   bordercolor="#000000"
   borderopacity="0.25"
   inkscape:showpageshadow="2"
   inkscape:pageopacity="0.0"
   inkscape:pagecheckerboard="0"
   inkscape:deskcolor="#d1d1d1"
   inkscape:zoom="1.0721507"
   inkscape:cx="310.12433"
   inkscape:cy="435.10676"
   inkscape:window-width="2560"
   inkscape:window-height="1494"
   inkscape:window-x="-11"
   inkscape:window-y="-11"
   inkscape:window-maximized="1"
   inkscape:current-layer="Capa_1" />
<rect
   style="fill:#ffffff;fill-opacity:1;stroke:#000000;stroke-width:0.999975;stroke-opacity:1"
   id="rect10"
   width="59.110161"
   height="59.180119"
   x="0.48966998"
   y="0.41971713"
   rx="12.101919"
   ry="12.101919" /><path
   d="m 34.276033,35.969437 8.861056,-12.250081 c 0.271614,-0.375717 0.230919,-0.894339 -0.09842,-1.223683 -0.329344,-0.327451 -0.847966,-0.369093 -1.223683,-0.09843 l -12.251974,8.863895 c -0.798753,0.581084 -1.301287,1.479209 -1.377944,2.464402 -0.07666,0.985192 0.280131,1.949564 0.977621,2.647054 0.636921,0.636921 1.482994,0.988032 2.382065,0.988032 1.076993,0 2.097202,-0.519568 2.731284,-1.391194 z"
   id="path1"
   style="stroke-width:0.946367;stroke-dasharray:none" /><path
   d="m 53.00889,19.912973 c -0.0095,-0.01987 -0.0095,-0.04069 -0.01987,-0.06057 -0.01136,-0.01893 -0.02934,-0.02934 -0.04164,-0.04732 -0.956801,-1.641041 -2.088685,-3.16757 -3.373883,-4.551193 l 2.031901,-2.031901 1.338196,1.338197 4.014589,-4.014589 -4.014589,-4.0155362 -4.015536,4.0155362 1.339143,1.338196 -2.031901,2.031901 c -1.383623,-1.285199 -2.909204,-2.418028 -4.551192,-3.374829 -0.01798,-0.0123 -0.02839,-0.03029 -0.04732,-0.04164 -0.01987,-0.01136 -0.04069,-0.01041 -0.06057,-0.02082 C 40.649028,8.7919358 37.36032,7.6685698 33.854889,7.2568898 V 6.1297385 h 1.419586 c 1.305073,0 2.365977,-1.0609039 2.365977,-2.3659767 0,-1.3050727 -1.062797,-2.3659767 -2.36787,-2.3659767 h -8.517516 c -1.305072,0 -2.365976,1.060904 -2.365976,2.3659767 0,1.3050728 1.060904,2.3659767 2.365976,2.3659767 h 1.419586 v 1.0940277 c -1.022102,0.1088349 -2.042311,0.2753996 -3.051163,0.506319 -0.509158,0.116406 -0.828092,0.6246176 -0.71074,1.1337756 0.116406,0.509159 0.624618,0.827146 1.133776,0.71074 0.895286,-0.205367 1.800035,-0.357736 2.706678,-0.459 l 0.937873,-0.07098 c 0.317041,-0.02366 0.600958,-0.04069 0.875411,-0.05394 v 0 1.8710142 c 0,0.523354 0.423037,0.946391 0.946391,0.946391 0.523354,0 0.946391,-0.423037 0.946391,-0.946391 V 8.9973048 c 3.559375,0.163726 6.913384,1.1195812 9.895461,2.6924822 l -0.933142,1.616435 c -0.261203,0.453321 -0.105995,1.031566 0.346379,1.29277 0.148584,0.08612 0.311363,0.126816 0.472249,0.126816 0.327451,0 0.645439,-0.17035 0.820521,-0.473195 l 0.930302,-1.61265 c 2.961256,1.878586 5.476763,4.394092 7.355348,7.355349 l -1.611703,0.930302 c -0.450482,0.261203 -0.60569,0.839448 -0.34354,1.292769 0.176029,0.303792 0.49307,0.473196 0.820521,0.473196 0.160886,0 0.323666,-0.04069 0.472249,-0.126817 l 1.615489,-0.933141 c 1.594668,3.024665 2.553362,6.433564 2.696267,10.049723 h -1.869122 c -0.523354,0 -0.94639,0.423036 -0.94639,0.94639 0,0.523354 0.423036,0.946391 0.94639,0.946391 h 1.869122 c -0.142905,3.616159 -1.101599,7.025058 -2.696267,10.049723 l -1.615489,-0.933145 c -0.452375,-0.26215 -1.031566,-0.107888 -1.29277,0.346379 -0.261204,0.453322 -0.105996,1.031566 0.346379,1.29277 l 1.611704,0.930302 c -1.878586,2.961257 -4.394092,5.476763 -7.355349,7.355348 l -0.930302,-1.611703 c -0.26215,-0.454267 -0.842288,-0.609475 -1.29277,-0.346379 -0.453321,0.261204 -0.608529,0.840395 -0.346379,1.29277 l 0.933142,1.615489 c -2.982077,1.572901 -6.336086,2.528756 -9.895461,2.692481 v -1.862497 c 0,-0.523354 -0.423037,-0.94639 -0.946391,-0.94639 -0.523354,0 -0.946391,0.423036 -0.946391,0.94639 v 1.870068 c -1.511385,-0.05205 -3.027503,-0.241329 -4.519961,-0.583923 -0.509159,-0.118299 -1.01737,0.201581 -1.133776,0.71074 -0.117353,0.509158 0.201581,1.01737 0.710739,1.133776 1.888996,0.435339 3.818686,0.654902 5.733235,0.654902 0.04637,0 0.09085,-0.0028 0.137226,-0.0038 0.0066,0 0.01136,0.0038 0.01703,0.0038 0.0076,0 0.0142,-0.0047 0.02177,-0.0047 4.5493,-0.03123 8.817522,-1.259646 12.510339,-3.381454 0.02934,-0.01325 0.06057,-0.01987 0.08896,-0.03691 0.01893,-0.01136 0.02934,-0.02934 0.04732,-0.04164 3.822472,-2.227804 7.01654,-5.418087 9.249076,-9.23772 0.01798,-0.02555 0.04069,-0.04543 0.05678,-0.07382 0.01136,-0.01987 0.01041,-0.04069 0.01987,-0.06057 2.161556,-3.747707 3.404167,-8.087855 3.404167,-12.715705 0,-4.627851 -1.242611,-8.967998 -3.403221,-12.715705 z"
   id="path2"
   style="stroke-width:0.946367;stroke-dasharray:none" /><path
   d="m 22.496308,13.700864 h -4.731953 c -1.044815,0 -1.892782,0.847966 -1.892782,1.892782 0,1.044815 0.847967,1.892781 1.892782,1.892781 h 4.731953 c 1.044816,0 1.892782,-0.847966 1.892782,-1.892781 0,-1.044816 -0.847966,-1.892782 -1.892782,-1.892782 z"
   id="path3"
   style="stroke-width:0.946367;stroke-dasharray:none" /><path
   d="m 22.496308,20.325599 h -9.463907 c -1.044815,0 -1.892781,0.847966 -1.892781,1.892781 0,1.044816 0.847966,1.892782 1.892781,1.892782 h 9.463907 c 1.044816,0 1.892782,-0.847966 1.892782,-1.892782 0,-1.044815 -0.847966,-1.892781 -1.892782,-1.892781 z"
   id="path4"
   style="stroke-width:0.946367;stroke-dasharray:none" /><path
   d="M 22.496308,26.950334 H 8.3004484 c -1.0448153,0 -1.8927814,0.847966 -1.8927814,1.892781 0,1.044815 0.8479661,1.892781 1.8927814,1.892781 H 22.496308 c 1.044816,0 1.892782,-0.847966 1.892782,-1.892781 0,-1.044815 -0.847966,-1.892781 -1.892782,-1.892781 z"
   id="path5"
   style="stroke-width:0.946367;stroke-dasharray:none" /><path
   d="M 22.496308,33.575068 H 4.5148857 c -1.0448154,0 -1.8927814,0.847966 -1.8927814,1.892782 0,1.044815 0.847966,1.892781 1.8927814,1.892781 H 22.496308 c 1.044816,0 1.892782,-0.847966 1.892782,-1.892781 0,-1.044816 -0.847966,-1.892782 -1.892782,-1.892782 z"
   id="path6"
   style="stroke-width:0.946367;stroke-dasharray:none" /><path
   d="M 22.496308,40.199803 H 10.19323 c -1.0448156,0 -1.8927816,0.847966 -1.8927816,1.892781 0,1.044816 0.847966,1.892782 1.8927816,1.892782 h 12.303078 c 1.044816,0 1.892782,-0.847966 1.892782,-1.892782 0,-1.044815 -0.847966,-1.892781 -1.892782,-1.892781 z"
   id="path7"
   style="stroke-width:0.946367;stroke-dasharray:none" /><path
   d="m 22.496308,46.824538 h -6.624735 c -1.044815,0 -1.892781,0.847966 -1.892781,1.892781 0,1.044816 0.847966,1.892782 1.892781,1.892782 h 6.624735 c 1.044816,0 1.892782,-0.847966 1.892782,-1.892782 0,-1.044815 -0.847966,-1.892781 -1.892782,-1.892781 z"
   id="path8"
   style="stroke-width:0.946367;stroke-dasharray:none" />
<metadata
   id="metadata8"><rdf:RDF><cc:License
       rdf:about="http://creativecommons.org/publicdomain/zero/1.0/"><cc:permits
         rdf:resource="http://creativecommons.org/ns#Reproduction" /><cc:permits
         rdf:resource="http://creativecommons.org/ns#Distribution" /><cc:permits
         rdf:resource="http://creativecommons.org/ns#DerivativeWorks" /></cc:License><cc:Work
       rdf:about=""><cc:license
         rdf:resource="http://creativecommons.org/publicdomain/zero/1.0/" /></cc:Work></rdf:RDF></metadata></svg>
